<?xml version="1.0" encoding="UTF-8"?>
<!-- Generated by jsxcad -->
<!DOCTYPE svg PUBLIC "-//W3C//DTD SVG 1.1 Tiny//EN" "http://www.w3.org/Graphics/SVG/1.1/DTD/svg11-tiny.dtd">
<svg baseProfile="tiny" height="110.00000000000006mm" width="110.00000000000006mm" viewBox="-55.00000000000003 -55.00000000000003 110.00000000000006 110.00000000000006" version="1.1" stroke="black" stroke-width=".1" fill="none" xmlns="http://www.w3.org/2000/svg">
<path fill="#000000" stroke="#000000" d="M50 49.99999999999999 L50 -49.99999999999999 L-50 -49.99999999999999 L-50 49.99999999999999 z M13.562034999999996 -11.924214999999997 L13.5925 -11.822499999999996 L13.565312499999997 -11.654214999999997 L13.347812499999998 -11.275464999999997 L13.1575 -11.064999999999996 L12.825624999999999 -10.745312499999997 L11.948124999999997 -9.965312499999996 L10.880785 -9.064839999999997 L10.194535 -8.468597499999998 L10.03 -8.312499999999998 L9.2725 -7.2849999999999975 L8.6298475 -5.679062499999998 L6.886097499999999 -2.3715624999999987 L5.7849999999999975 -0.6699999999999984 L4.547027499999998 0.9912500000000005 L1.6857849999999996 3.99875 L0.06250000000000148 5.345 L-1.6062499999999993 6.4803125 L-4.039062499999998 7.57508 L-5.614062499999999 7.899454999999999 L-6.387499999999999 7.9399999999999995 L-7.285744999999999 7.8666425 L-8.722932499999999 7.279767499999999 L-9.681057499999998 6.1060175 L-10.16012 4.3453925 L-10.219999999999997 3.245 L-10.177812499999998 2.1939425000000004 L-9.840312499999998 0.02925500000000139 L-9.117216185812463 -2.131325839460388 L-9.844999999999997 -1.3449999999999984 L-11.157964999999999 -0.06390249999999971 L-15.181714999999999 3.3898475 L-17.8925 5.5625 L-19.155312499999997 7.7928125 L-24.154527499999997 16.905312499999997 L-31.335777499999995 29.377812499999994 L-33.709999999999994 33.10249999999999 L-34.401875 34.13047249999999 L-34.684999999999995 34.53499999999999 L-35.028589999999994 34.99156249999999 L-35.99983999999999 36.124062499999994 L-36.6275 36.79999999999999 L-37.26875 37.42671499999999 L-38.348749999999995 38.1429725 L-38.787499999999994 38.23249999999999 L-39.09160249999999 38.17425499999999 L-39.57816499999999 37.70831749999999 L-40.003902499999995 36.135777499999996 L-40.084999999999994 34.50499999999999 L-40.023357499999996 33.113517499999986 L-39.5302325 30.239142499999996 L-38.54398249999999 27.242892499999993 L-37.064607499999994 24.124767499999997 L-36.13999999999999 22.519999999999996 L-35.0491025 20.832964999999998 L-32.39691499999999 17.382965 L-29.117539999999998 13.831714999999999 L-25.2109775 10.179222499999998 L-23.022499999999997 8.315 L-17.6225 -2.1549999999999985 L-15.4076525 -6.204999999999999 L-12.111402499999999 -11.874999999999996 L-11.029999999999998 -13.494999999999997 L-10.4403125 -14.190624999999995 L-9.120312499999999 -15.368124999999996 L-8.389999999999999 -15.849999999999996 L-7.673277499999999 -16.237187499999997 L-6.4845275 -16.679687499999996 L-6.012499999999999 -16.734999999999996 L-5.7992225 -16.718124999999997 L-5.5554725000000005 -16.583124999999995 L-5.525 -16.464999999999996 L-5.5315625 -16.4054725 L-5.630000000000001 -16.1425 L-8.318284999999998 -11.411874999999998 L-11.667027499999998 -5.471874999999997 L-12.327499999999999 -4.2624999999999975 L-12.949527499999999 -3.121089999999999 L-15.000784999999999 0.4976525000000013 L-16.429999999999996 2.9750000000000005 L-14.847964999999999 1.6882850000000005 L-12.069214999999998 -0.6629649999999996 L-10.872499999999999 -1.7274999999999985 L-9.633124999999998 -3.0395274999999984 L-7.94985526390682 -4.883864825395893 L-7.5200000000000005 -5.747499999999997 L-6.070625 -8.078124999999998 L-2.5756249999999996 -12.210624999999997 L-0.5300000000000005 -14.012499999999996 L0.5405050000000001 -14.815817499999998 L2.6695675000000008 -16.101129999999994 L4.782692500000002 -16.958004999999993 L6.879879999999997 -17.386442499999994 L7.9224999999999985 -17.439999999999994 L8.630897499999998 -17.402852499999995 L9.764335 -17.105664999999995 L10.519960000000001 -16.511289999999995 L10.897772499999999 -15.619727499999994 L10.944999999999999 -15.062499999999996 L10.863909999999999 -14.356562499999997 L10.215159999999997 -12.601562499999998 L9.624534999999996 -11.522972499999996 L9.598284999999999 -11.444214999999996 L9.6015625 -11.345777499999997 L9.6540625 -11.289527499999997 L9.700000000000001 -11.282499999999999 L10.663749999999999 -11.640152499999997 L12.36625 -12.071402499999996 L13.105 -12.144999999999998 L13.318285 -12.085464999999996 z M-1.411250000000001 -24.993902499999997 L-1.3099999999999998 -24.189999999999994 L-1.387812500000001 -23.438124999999996 L-2.0103124999999995 -21.968124999999993 L-2.5549999999999997 -21.249999999999993 L-3.187339999999999 -20.623277499999997 L-4.511097499999999 -19.907027499999995 L-5.202500000000001 -19.817499999999995 L-5.793124999999999 -19.918749999999996 L-6.468125000000001 -20.72874999999999 L-6.552499999999998 -21.437499999999993 L-6.481715 -22.193589999999993 L-5.915472500000001 -23.719839999999994 L-5.42 -24.48999999999999 L-4.836875 -25.162652499999993 L-3.591875 -25.931402499999997 L-2.9299999999999997 -26.027499999999996 L-2.5503124999999986 -25.998789999999996 L-1.9428124999999996 -25.7691025 z M35.04999999999999 -29.385624999999994 L35.08 -29.267499999999995 L34.9825 -28.8901525 L34.20249999999999 -28.458902499999997 L33.519999999999996 -28.404999999999998 L28.442500000000003 -28.404999999999998 L22.944999999999997 -17.985152499999995 L16.382499999999997 -5.591402499999999 L15.317499999999997 -3.6174999999999993 L14.326562499999998 -1.7190624999999993 L13.1940625 0.9809375000000006 L13.0525 1.7825000000000009 L13.069375 1.9498475000000002 L13.204375 2.1410975000000003 L13.3225 2.1650000000000005 L13.8798475 1.9489100000000006 L16.066097499999998 0.22016000000000036 L17.694999999999997 -1.2924999999999982 L18.91891 -2.5529649999999986 L21.915159999999997 -5.819214999999997 L23.6875 -7.824999999999996 L23.766249999999996 -7.897187499999998 L23.901249999999997 -7.979687499999997 L23.9575 -7.9899999999999975 L24.0067225 -7.976402499999999 L24.062965 -7.867652499999996 L24.069999999999997 -7.772499999999999 L24.019374999999997 -7.262499999999997 L23.614374999999995 -6.264999999999998 L23.259999999999998 -5.777499999999999 L21.318437499999995 -3.652652499999999 L17.778437499999995 0.04859750000000054 L16.179999999999996 1.6250000000000002 L13.213749999999997 4.3648475 L9.790937499999998 7.006835 L8.193437499999996 7.789647499999999 L7.599999999999999 7.887499999999999 L7.2685900000000006 7.8265625 L6.889847500000001 7.3390625 L6.8425 6.9125 L6.89641 6.275472499999999 L7.327659999999997 4.5767225 L7.704999999999999 3.515 L8.13625 2.412972500000001 L8.99875 0.414222500000001 L9.429999999999996 -0.4824999999999985 L10.299999999999999 -2.1549999999999985 L11.0204725 -3.4599999999999986 L13.0717225 -7.239999999999998 L15.819999999999999 -12.351714999999997 L18.587499999999995 -17.402964999999995 L19.9375 -19.817499999999995 L21.254222499999997 -22.134527499999997 L23.777972499999997 -26.42827749999999 L24.984999999999996 -28.404999999999998 L20.717499999999998 -28.404999999999998 L20.48125 -28.421874999999993 L20.211249999999996 -28.55687499999999 L20.1775 -28.674999999999997 L20.204687499999995 -28.809999999999995 L20.422187499999996 -29.079999999999995 L20.612499999999997 -29.214999999999996 L20.83 -29.333124999999995 L21.287499999999998 -29.468124999999993 L21.527499999999996 -29.484999999999996 L25.69 -29.537499999999998 L26.963124999999998 -31.507187499999993 L29.228125000000002 -34.7996875 L30.219999999999995 -36.122499999999995 L30.995312499999994 -37.04452749999999 L32.1578125 -38.09827749999999 L32.545 -38.22999999999999 L32.7090625 -38.19952749999999 L32.8965625 -37.95577749999999 L32.92 -37.742499999999986 L32.792035 -37.014062499999994 L31.768284999999995 -34.58406249999999 L30.8725 -32.88249999999999 L29.034999999999997 -29.537499999999998 L34.599999999999994 -29.537499999999998 L34.809999999999995 -29.520624999999995 z"/>
<path fill="#000000" stroke="#000000" d="M-5.81984 2.7340625000000003 L-5.959999999999999 4.265 L-5.868589999999998 5.164062499999999 L-5.388709999999999 6.0310175 L-4.840272499999999 6.287892499999999 L-4.4975 6.319999999999999 L-3.9173075000000006 6.2491025 L-2.6732449999999996 5.681914999999999 L-1.3176199999999991 4.54754 L0.14956750000000132 2.8459775 L0.9250000000000004 1.7825000000000009 L2.349999999999999 -0.48952749999999884 L3.896874999999999 -3.9098799999999985 L4.534375 -6.1983175 L4.7349999999999985 -7.344999999999999 L4.712034999999999 -7.404527499999997 L4.6857774999999995 -7.565777499999997 L4.682499999999998 -7.667499999999998 L4.726330000000002 -8.054222499999996 L5.076954999999997 -8.796722499999998 L6.260312500000002 -9.833124999999997 L7.4875 -10.472499999999997 L7.681097500000001 -10.558277499999997 L7.9248400000000006 -10.749527499999996 L7.974999999999999 -10.854999999999999 L8.1653125 -11.745624999999999 L8.3828125 -13.200624999999997 L8.409999999999997 -13.764999999999995 L8.315312499999997 -14.759214999999998 L7.818204999999998 -15.717932499999996 L7.250079999999998 -16.001994999999997 L6.8950000000000005 -16.037499999999994 L6.3521874999999985 -15.976682499999997 L5.170937500000002 -15.490119999999997 L3.1600000000000006 -13.847964999999999 L1.6600000000000006 -12.144999999999998 L0.14827749999999953 -10.141562499999997 L-2.540472500000001 -5.769062499999999 L-3.7175000000000002 -3.3999999999999986 L-4.698597499999999 -1.098437499999999 z"/>
<path fill="#000000" stroke="#000000" d="M-38.4007775 31.107499999999995 L-38.464999999999996 32.022499999999994 L-38.44483999999999 32.426089999999995 L-38.28359749999999 32.88734749999999 L-38.14249999999999 32.94499999999999 L-37.990624999999994 32.912659999999995 L-37.58562499999999 32.653909999999996 L-37.332499999999996 32.427499999999995 L-37.07234 32.170624999999994 L-36.61109 31.645624999999995 L-36.41 31.377499999999994 L-36.035 30.837499999999995 L-33.49015249999999 26.757034999999995 L-27.711409999999997 16.793284999999997 L-24.477499999999996 10.909999999999998 L-27.7151525 13.895937499999997 L-31.747227499999997 18.237732499999996 L-33.885664999999996 21.040857499999998 L-34.78999999999999 22.414999999999996 L-35.01734 22.762812499999995 L-35.53108999999999 23.610312499999996 L-35.817499999999995 24.11 L-36.14093749999999 24.732972499999995 L-36.950937499999995 26.544214999999994 L-37.43749999999999 27.732499999999995 L-37.887027499999995 28.962499999999995 z"/>
</svg>